<svg width="32" height="32" viewBox="0 0 32 32" fill="none" xmlns="http://www.w3.org/2000/svg">
<g clip-path="url(#clip0_3_54)">
<path d="M32 23.8795C32 24.0548 31.9945 24.4329 31.9836 24.7288C31.9562 25.4466 31.9014 26.3726 31.8137 26.7945C31.6822 27.4301 31.4904 28.0274 31.2329 28.526C30.9315 29.1178 30.5479 29.6438 30.0877 30.0986C29.6329 30.5534 29.1068 30.937 28.5151 31.2384C28.0164 31.4959 27.4137 31.6877 26.7726 31.8192C26.3562 31.9014 25.4356 31.9616 24.7233 31.9836C24.4274 31.9945 24.0493 32 23.874 32H8.11507C7.93973 32 7.56164 31.9945 7.26575 31.9836C6.54795 31.9562 5.62192 31.9014 5.2 31.8137C4.56438 31.6822 3.96712 31.4904 3.46849 31.2329C2.87671 30.9315 2.35068 30.5479 1.89589 30.0877C1.4411 29.6329 1.05753 29.1068 0.756164 28.5151C0.49863 28.0164 0.306849 27.4137 0.175342 26.7726C0.0931507 26.3562 0.0328767 25.4356 0.0109589 24.7233C0.00547945 24.4329 0 24.0548 0 23.8795V8.12055C0 7.94521 0.00547945 7.56712 0.0164384 7.27123C0.0438356 6.55342 0.0986301 5.6274 0.186301 5.20548C0.317808 4.56986 0.509589 3.9726 0.767123 3.47397C1.06849 2.88219 1.45205 2.35616 1.90685 1.90137C2.36164 1.44658 2.88767 1.06301 3.47945 0.761644C3.97808 0.50411 4.58082 0.312329 5.22192 0.180822C5.63836 0.0986301 6.5589 0.0383562 7.27123 0.0164384C7.56712 0.00547945 7.94521 0 8.12055 0H23.8795C24.0548 0 24.4329 0.00547945 24.7288 0.0164384C25.4466 0.0438356 26.3726 0.0986301 26.7945 0.186301C27.4301 0.317808 28.0274 0.509589 28.526 0.767123C29.1178 1.06849 29.6438 1.45205 30.0986 1.91233C30.5534 2.36712 30.937 2.89315 31.2384 3.48493C31.4959 3.98356 31.6877 4.5863 31.8192 5.2274C31.9014 5.64384 31.9616 6.56438 31.9836 7.27671C31.9945 7.5726 32 7.95069 32 8.12603V23.8795Z" fill="url(#paint0_linear_3_54)"/>
<path fill-rule="evenodd" clip-rule="evenodd" d="M24.4164 7.66034C22.263 5.50691 19.3972 4.31787 16.3452 4.31787C10.0548 4.31787 4.94244 9.43568 4.93696 15.7206C4.93696 17.7316 5.46299 19.6932 6.46025 21.4192L4.84381 27.3316L10.8931 25.748C12.5589 26.6576 14.4329 27.1343 16.3452 27.1343H16.3507C22.6356 27.1343 27.7534 22.0165 27.7589 15.7316C27.7589 12.6795 26.5698 9.81376 24.4164 7.66034ZM16.3507 25.2055C14.6466 25.2055 12.9753 24.7453 11.5233 23.885L11.1781 23.6823L7.58902 24.6247L8.54792 21.1288L8.32326 20.7727C7.37532 19.2658 6.87121 17.5179 6.87121 15.7261C6.87121 10.4987 11.1287 6.24664 16.3561 6.24664C18.8876 6.24664 21.2712 7.23294 23.0575 9.02472C24.8493 10.8165 25.8356 13.2001 25.8301 15.7316C25.8246 20.9535 21.5726 25.2055 16.3507 25.2055ZM21.5507 18.1097C21.2657 17.9672 19.863 17.2768 19.6055 17.1836C19.3424 17.0905 19.1561 17.0412 18.9644 17.3261C18.7726 17.611 18.2301 18.2521 18.0602 18.4439C17.8959 18.6357 17.726 18.6576 17.4411 18.5151C17.1561 18.3727 16.2356 18.0713 15.1507 17.1014C14.3013 16.3453 13.7315 15.4138 13.5671 15.1288C13.4027 14.8439 13.5507 14.6905 13.6931 14.548C13.8192 14.422 13.9781 14.2138 14.1205 14.0494C14.263 13.885 14.3123 13.7644 14.4055 13.5727C14.4986 13.3809 14.4548 13.2165 14.3835 13.074C14.3123 12.9316 13.7424 11.5288 13.5068 10.959C13.2767 10.4055 13.0411 10.4768 12.8657 10.4713C12.7013 10.4603 12.5096 10.4603 12.3178 10.4603C12.126 10.4603 11.8192 10.5316 11.5561 10.8165C11.2931 11.1014 10.5589 11.7918 10.5589 13.1946C10.5589 14.5973 11.5781 15.9507 11.7205 16.1425C11.863 16.3343 13.7315 19.211 16.5918 20.4439C17.2712 20.7398 17.8027 20.9151 18.2192 21.0466C18.9041 21.2658 19.5233 21.2329 20.0164 21.1617C20.5644 21.0795 21.7041 20.4713 21.9397 19.8083C22.1753 19.1453 22.1753 18.5699 22.1041 18.4549C22.0219 18.3234 21.8356 18.2521 21.5507 18.1097Z" fill="white"/>
</g>
<defs>
<linearGradient id="paint0_linear_3_54" x1="16.0012" y1="32.0024" x2="16.0012" y2="0" gradientUnits="userSpaceOnUse">
<stop stop-color="#25CF43"/>
<stop offset="1" stop-color="#61FD7D"/>
</linearGradient>
<clipPath id="clip0_3_54">
<rect width="32" height="32" fill="white"/>
</clipPath>
</defs>
</svg>
