<svg width="32" height="32" viewBox="0 0 32 32" fill="none" xmlns="http://www.w3.org/2000/svg">
<rect width="32" height="32" rx="6.82667" fill="white"/>
<path d="M7.15824 23.6771H10.4208V15.7883L5.76001 12.2821V22.2801C5.76001 23.0471 6.39059 23.6771 7.15824 23.6771Z" fill="#4285F4"/>
<path d="M21.5792 23.6771H24.8418C25.6094 23.6771 26.24 23.0471 26.24 22.2801V12.2821L21.5792 15.7609" fill="#34A853"/>
<path d="M21.5792 9.73474V15.7883L26.24 12.3096V10.4195C26.24 8.69385 24.266 7.70774 22.8952 8.74863" fill="#FBBC04"/>
<path d="M10.4208 15.7883V9.73474L16.0137 13.9257L21.5792 9.73474V15.7883L15.9863 19.9519" fill="#EA4335"/>
<path d="M5.76001 10.4196V12.2822L10.4208 15.761V9.73477L9.1048 8.74866C7.73399 7.73516 5.76001 8.72127 5.76001 10.4196Z" fill="#C5221F"/>
</svg>
